<?xml version="1.0" encoding="UTF-8"?>
<svg width="164px" height="23px" viewBox="0 0 164 23" version="1.1" xmlns="http://www.w3.org/2000/svg" xmlns:xlink="http://www.w3.org/1999/xlink">
    <!-- Generator: Sketch 51.3 (57544) - http://www.bohemiancoding.com/sketch -->
    <title>DEERSURGE Copy</title>
    <desc>Created with Sketch.</desc>
    <defs></defs>
    <g id="Page-1" stroke="none" stroke-width="1" fill="none" fill-rule="evenodd">
        <g id="Artboard" transform="translate(-286.000000, -403.000000)" fill="#000000">
            <path d="M286.662598,425 L286.662598,403.671875 L292.961426,403.671875 C294.846201,403.671875 296.518547,404.091793 297.978516,404.931641 C299.438484,405.771489 300.568844,406.962883 301.369629,408.505859 C302.170414,410.048836 302.570801,411.816396 302.570801,413.808594 L302.570801,414.87793 C302.570801,416.899424 302.167973,418.67675 301.362305,420.209961 C300.556637,421.743172 299.409187,422.924801 297.919922,423.754883 C296.430657,424.584965 294.724131,425 292.800293,425 L286.662598,425 Z M290.368652,406.660156 L290.368652,422.041016 L292.785645,422.041016 C294.729014,422.041016 296.220698,421.433112 297.260742,420.217285 C298.300786,419.001459 298.830566,417.255871 298.850098,414.980469 L298.850098,413.793945 C298.850098,411.479481 298.347173,409.71192 297.341309,408.491211 C296.335444,407.270502 294.875498,406.660156 292.961426,406.660156 L290.368652,406.660156 Z M318.728027,415.478516 L309.968262,415.478516 L309.968262,422.041016 L320.20752,422.041016 L320.20752,425 L306.262207,425 L306.262207,403.671875 L320.10498,403.671875 L320.10498,406.660156 L309.968262,406.660156 L309.968262,412.548828 L318.728027,412.548828 L318.728027,415.478516 Z M335.690918,415.478516 L326.931152,415.478516 L326.931152,422.041016 L337.17041,422.041016 L337.17041,425 L323.225098,425 L323.225098,403.671875 L337.067871,403.671875 L337.067871,406.660156 L326.931152,406.660156 L326.931152,412.548828 L335.690918,412.548828 L335.690918,415.478516 Z M348.024902,416.782227 L343.894043,416.782227 L343.894043,425 L340.187988,425 L340.187988,403.671875 L347.687988,403.671875 C350.148938,403.671875 352.048333,404.223627 353.38623,405.327148 C354.724128,406.43067 355.393066,408.027333 355.393066,410.117188 C355.393066,411.542976 355.048832,412.736812 354.360352,413.69873 C353.671872,414.660649 352.712408,415.400388 351.481934,415.917969 L356.271973,424.80957 L356.271973,425 L352.302246,425 L348.024902,416.782227 Z M343.894043,413.808594 L347.702637,413.808594 C348.952643,413.808594 349.929196,413.493655 350.632324,412.86377 C351.335453,412.233884 351.687012,411.372076 351.687012,410.27832 C351.687012,409.135736 351.362308,408.251956 350.712891,407.626953 C350.063473,407.00195 349.094245,406.679688 347.805176,406.660156 L343.894043,406.660156 L343.894043,413.808594 Z M370.056152,419.506836 C370.056152,418.569331 369.726566,417.846682 369.067383,417.338867 C368.4082,416.831052 367.219247,416.318362 365.500488,415.800781 C363.78173,415.283201 362.414556,414.707034 361.398926,414.072266 C359.455557,412.851556 358.483887,411.259775 358.483887,409.296875 C358.483887,407.578116 359.184563,406.162115 360.585938,405.048828 C361.987312,403.935541 363.806141,403.378906 366.04248,403.378906 C367.526863,403.378906 368.850092,403.652341 370.012207,404.199219 C371.174322,404.746096 372.087399,405.524897 372.751465,406.535645 C373.415531,407.546392 373.747559,408.666986 373.747559,409.897461 L370.056152,409.897461 C370.056152,408.784174 369.707035,407.912601 369.008789,407.282715 C368.310543,406.652829 367.312018,406.337891 366.013184,406.337891 C364.80224,406.337891 363.862308,406.596677 363.193359,407.114258 C362.524411,407.631839 362.189941,408.354488 362.189941,409.282227 C362.189941,410.06348 362.551266,410.715329 363.273926,411.237793 C363.996586,411.760257 365.18798,412.268064 366.848145,412.76123 C368.508309,413.254397 369.841304,413.815915 370.847168,414.445801 C371.853032,415.075687 372.59033,415.798336 373.059082,416.61377 C373.527834,417.429203 373.762207,418.383784 373.762207,419.477539 C373.762207,421.254892 373.081061,422.668452 371.71875,423.718262 C370.356439,424.768072 368.508312,425.292969 366.174316,425.292969 C364.63134,425.292969 363.212897,425.007327 361.918945,424.436035 C360.624994,423.864743 359.619144,423.076177 358.901367,422.070312 C358.18359,421.064448 357.824707,419.892585 357.824707,418.554688 L361.530762,418.554688 C361.530762,419.765631 361.931148,420.703122 362.731934,421.367188 C363.532719,422.031253 364.680168,422.363281 366.174316,422.363281 C367.463385,422.363281 368.432614,422.102053 369.082031,421.57959 C369.731449,421.057126 370.056152,420.366215 370.056152,419.506836 Z M392.614746,403.671875 L392.614746,417.924805 C392.614746,420.190441 391.889656,421.984857 390.439453,423.308105 C388.989251,424.631354 387.058118,425.292969 384.645996,425.292969 C382.204578,425.292969 380.26612,424.64112 378.830566,423.337402 C377.395012,422.033685 376.677246,420.224621 376.677246,417.910156 L376.677246,403.671875 L380.368652,403.671875 L380.368652,417.939453 C380.368652,419.365242 380.729977,420.454098 381.452637,421.206055 C382.175297,421.958012 383.239739,422.333984 384.645996,422.333984 C387.497573,422.333984 388.92334,420.830093 388.92334,417.822266 L388.92334,403.671875 L392.614746,403.671875 Z M404.406738,416.782227 L400.275879,416.782227 L400.275879,425 L396.569824,425 L396.569824,403.671875 L404.069824,403.671875 C406.530774,403.671875 408.430169,404.223627 409.768066,405.327148 C411.105964,406.43067 411.774902,408.027333 411.774902,410.117188 C411.774902,411.542976 411.430668,412.736812 410.742188,413.69873 C410.053707,414.660649 409.094244,415.400388 407.86377,415.917969 L412.653809,424.80957 L412.653809,425 L408.684082,425 L404.406738,416.782227 Z M400.275879,413.808594 L404.084473,413.808594 C405.334479,413.808594 406.311032,413.493655 407.01416,412.86377 C407.717289,412.233884 408.068848,411.372076 408.068848,410.27832 C408.068848,409.135736 407.744144,408.251956 407.094727,407.626953 C406.445309,407.00195 405.476081,406.679688 404.187012,406.660156 L400.275879,406.660156 L400.275879,413.808594 Z M431.638184,422.231445 C430.866695,423.23731 429.79737,423.999021 428.430176,424.516602 C427.062981,425.034182 425.510263,425.292969 423.771973,425.292969 C421.984854,425.292969 420.402839,424.887699 419.025879,424.077148 C417.648919,423.266598 416.586918,422.106941 415.839844,420.598145 C415.09277,419.089348 414.70459,417.329112 414.675293,415.317383 L414.675293,413.647461 C414.675293,410.424789 415.44677,407.907724 416.989746,406.096191 C418.532723,404.284659 420.686021,403.378906 423.449707,403.378906 C425.822766,403.378906 427.707513,403.964838 429.104004,405.136719 C430.500495,406.3086 431.340331,407.998036 431.623535,410.205078 L427.990723,410.205078 C427.580564,407.636706 426.091321,406.352539 423.522949,406.352539 C421.862785,406.352539 420.60059,406.950678 419.736328,408.146973 C418.872066,409.343268 418.425293,411.098621 418.395996,413.413086 L418.395996,415.053711 C418.395996,417.35841 418.881831,419.147943 419.853516,420.422363 C420.8252,421.696784 422.175284,422.333984 423.903809,422.333984 C425.798349,422.333984 427.145992,421.904301 427.946777,421.044922 L427.946777,416.870117 L423.552246,416.870117 L423.552246,414.057617 L431.638184,414.057617 L431.638184,422.231445 Z M448.17627,415.478516 L439.416504,415.478516 L439.416504,422.041016 L449.655762,422.041016 L449.655762,425 L435.710449,425 L435.710449,403.671875 L449.553223,403.671875 L449.553223,406.660156 L439.416504,406.660156 L439.416504,412.548828 L448.17627,412.548828 L448.17627,415.478516 Z" id="DEERSURGE-Copy"></path>
        </g>
    </g>
</svg>